<?xml version="1.0" standalone="no"?>
<!DOCTYPE svg PUBLIC "-//W3C//DTD SVG 20010904//EN" "http://www.w3.org/TR/2001/REC-SVG-20010904/DTD/svg10.dtd">
<svg version="1.0" xmlns="http://www.w3.org/2000/svg"
	width="300.000000pt" height="300.000000pt" viewBox="0 0 300.000000 300.000000"
	preserveAspectRatio="xMidYMid meet">
	<metadata> Created by potrace 1.10, written by Peter Selinger 2001-2011 </metadata>
	<g transform="translate(0.000000,300.000000) scale(0.100000,-0.100000)"
		fill="#000000" stroke="none">
		<path
			d="M1293 2515 c-325 -59 -617 -274 -760 -560 -17 -33 -36 -77 -42 -98
-7 -20 -16 -35 -21 -32 -4 3 -6 -5 -2 -17 3 -13 1 -19 -5 -15 -6 4 -8 -4 -6
-21 4 -22 2 -24 -7 -12 -10 13 -11 12 -6 -4 8 -23 -3 -88 -14 -81 -5 3 -6 -14
-4 -37 3 -25 1 -36 -3 -26 -14 30 -3 -234 13 -315 27 -141 94 -295 180 -415 9
-12 14 -22 10 -22 -11 0 -95 136 -126 203 -16 34 -40 100 -54 147 -30 102 -35
86 -6 -20 28 -100 106 -260 170 -343 107 -141 223 -238 375 -314 50 -25 93
-50 96 -54 3 -5 40 -23 81 -39 109 -42 310 -77 294 -52 -3 5 1 9 9 9 8 0 15
-5 15 -11 0 -6 5 -3 11 7 5 9 15 17 20 17 6 0 7 -4 4 -10 -3 -5 0 -10 7 -10 9
0 9 -3 -2 -10 -11 -7 -4 -10 28 -10 23 0 42 4 42 10 0 5 -6 7 -13 4 -8 -3 -14
2 -14 11 0 8 4 16 9 16 4 1 11 2 16 3 4 1 32 6 62 10 236 33 486 173 655 367
36 41 112 151 125 182 10 22 20 40 53 89 10 15 16 32 13 37 -8 12 15 62 25 56
4 -3 4 -17 -1 -33 -26 -85 -34 -108 -52 -146 -10 -22 -30 -59 -43 -81 -13 -22
-31 -53 -41 -70 -18 -32 -50 -70 -98 -117 -16 -16 -26 -32 -22 -36 10 -9 100
88 143 155 46 72 104 189 110 222 2 14 8 30 12 36 5 5 16 51 26 100 32 163 8
442 -55 630 -29 87 -104 231 -119 227 -7 -1 -10 2 -6 8 14 23 -197 255 -233
255 -9 0 -17 7 -17 15 0 8 -6 16 -12 16 -7 1 -18 2 -24 3 -5 0 -8 5 -5 10 3 5
-2 8 -12 7 -9 0 -16 5 -14 12 1 8 -2 11 -8 7 -13 -8 -52 19 -42 30 4 5 2 5 -5
1 -14 -8 -104 34 -97 46 3 4 -3 5 -12 1 -12 -4 -15 -3 -10 5 4 7 2 10 -6 7 -8
-3 -40 4 -73 15 -140 48 -358 63 -512 35z m297 -26 c119 -15 116 -14 205 -47
153 -57 253 -111 336 -182 75 -65 199 -198 199 -214 0 -3 14 -27 30 -53 36
-57 40 -40 4 20 -18 30 -19 35 -5 19 12 -14 25 -20 32 -16 7 4 9 3 6 -3 -4 -6
11 -46 33 -91 51 -103 99 -275 107 -377 15 -207 -59 -467 -188 -656 -85 -126
-249 -268 -394 -341 -75 -39 -211 -84 -295 -99 -123 -22 -317 -16 -433 15
-154 40 -314 115 -392 184 -17 15 -24 23 -15 17 13 -9 13 -8 1 7 -7 10 -17 15
-22 12 -10 -6 -129 103 -129 118 0 5 5 6 11 2 7 -4 -7 17 -29 47 -23 30 -53
79 -68 109 -14 30 -32 67 -40 81 -24 46 -65 201 -72 274 -12 128 -3 356 14
362 6 2 8 18 6 37 -2 18 3 53 11 77 25 72 58 153 65 159 4 3 18 26 31 52 62
124 255 304 410 382 185 94 383 130 581 105z m645 -269 c44 -44 77 -80 75 -80
-3 0 -41 36 -85 80 -44 44 -77 80 -75 80 3 0 41 -36 85 -80z" />
		<path
			d="M1437 2004 c-1 -2 -24 -5 -50 -8 -26 -3 -66 -13 -89 -22 -75 -27
-101 -34 -109 -28 -4 2 -15 -7 -24 -20 -9 -14 -25 -28 -34 -31 -10 -3 -28 -26
-41 -51 -20 -42 -23 -62 -24 -183 0 -75 -4 -141 -8 -147 -4 -6 -5 -14 -1 -17
10 -11 11 -77 0 -70 -6 4 -7 1 -1 -8 12 -19 13 -180 1 -172 -5 3 -4 -3 2 -14
5 -11 10 -28 10 -39 1 -37 4 -53 10 -49 4 2 17 -11 29 -29 26 -38 97 -80 174
-102 73 -22 231 -27 274 -9 29 12 39 12 69 -1 19 -8 35 -11 35 -7 0 4 9 -3 21
-16 43 -46 105 -53 144 -17 21 19 34 23 59 19 49 -8 97 38 102 96 1 24 4 44 6
44 54 26 62 75 23 148 -14 27 -25 58 -25 68 0 50 -24 75 -80 86 -12 2 -28 9
-36 16 -15 12 -19 55 -6 63 7 4 7 219 -1 266 -5 28 -14 54 -29 87 -22 45 -190
138 -227 125 -8 -3 -11 0 -7 6 4 7 -1 9 -14 7 -12 -2 -50 -1 -86 4 -35 4 -65
6 -67 5z m150 -40 c121 -25 214 -79 239 -140 10 -23 14 -77 14 -180 l0 -146
-22 6 c-13 3 -31 6 -41 6 -17 0 -18 7 -15 65 1 36 2 65 0 65 -1 0 -13 -7 -25
-15 -47 -31 -144 -56 -233 -62 -105 -7 -213 13 -291 53 -58 29 -53 28 -53 4 0
-27 85 -74 173 -96 52 -13 95 -15 177 -12 l107 5 11 -33 c13 -43 6 -46 -138
-51 -128 -6 -211 10 -287 52 -41 22 -43 23 -43 4 0 -22 54 -59 126 -85 34 -13
84 -19 168 -21 65 -1 121 -5 124 -7 3 -3 -7 -21 -22 -41 l-27 -35 -82 0 c-94
0 -182 20 -244 55 l-43 24 0 -23 c0 -45 154 -106 267 -106 l64 0 -7 -37 c-4
-21 -11 -41 -16 -44 -12 -8 -98 -1 -163 13 -27 5 -73 23 -101 38 l-51 28 5
-25 c11 -57 180 -118 312 -111 67 3 70 2 70 -20 0 -13 3 -21 8 -19 4 3 8 -6 8
-19 2 -24 1 -24 -98 -24 -149 0 -277 40 -338 105 l-25 27 -3 319 c-3 307 -2
322 18 353 36 60 118 104 240 130 87 19 146 19 237 0z m143 -421 c0 -9 8 -25
17 -35 16 -18 15 -20 -16 -49 -32 -29 -34 -29 -52 -13 -24 22 -39 74 -27 97
12 24 78 24 78 0z m97 -95 c6 -5 13 -19 15 -31 3 -19 9 -22 49 -22 39 0 51 -5
68 -27 20 -25 20 -27 4 -43 -22 -23 -7 -69 25 -73 19 -3 22 -9 22 -48 0 -40
-2 -44 -25 -44 -33 0 -51 -34 -35 -68 10 -23 8 -29 -18 -55 -28 -28 -31 -28
-54 -13 -22 14 -26 14 -46 0 -12 -8 -22 -21 -22 -28 0 -17 -15 -22 -60 -22
-31 1 -35 4 -38 29 -4 31 -38 55 -55 38 -17 -17 -31 -13 -63 14 -28 24 -28 25
-12 52 20 35 9 68 -26 77 -21 5 -26 12 -26 39 0 36 15 58 35 51 21 -9 47 43
39 80 -5 30 -2 37 21 52 22 14 31 15 46 6 29 -19 47 -14 66 16 10 15 22 30 28
34 11 8 43 1 62 -14z" />
		<path
			d="M1370 1889 c-63 -11 -155 -51 -187 -81 -58 -55 4 -119 149 -153 205
-48 466 29 429 127 -29 77 -237 134 -391 107z m98 -61 c2 -9 -13 -22 -38 -33
-22 -10 -40 -21 -40 -25 0 -3 18 -16 40 -29 39 -21 50 -43 30 -56 -5 -3 -39
13 -75 36 -74 47 -74 46 8 96 55 33 70 36 75 11z m118 -23 c34 -21 60 -31 62
-25 2 6 -4 17 -14 25 -32 23 -7 29 37 10 66 -30 74 -70 19 -97 -37 -19 -55 -9
-44 25 8 27 -16 21 -74 -19 -30 -19 -60 -33 -68 -30 -19 7 -18 35 1 42 21 8
19 21 -5 27 -20 5 -28 27 -10 27 6 0 10 6 10 13 0 10 18 37 26 37 1 0 28 -16
60 -35z m-266 14 c0 -6 -4 -18 -10 -28 -7 -14 -4 -24 10 -41 11 -13 20 -29 20
-37 0 -7 5 -13 10 -13 6 0 10 -7 10 -16 0 -19 -23 -14 -97 23 -74 36 -72 75 6
110 34 15 51 16 51 2z" />
		<path
			d="M1760 1350 c-14 -10 -38 -20 -54 -22 -23 -2 -31 -10 -37 -32 -5 -16
-17 -39 -29 -51 l-20 -22 20 -18 c12 -11 20 -31 20 -51 0 -28 4 -33 30 -39 16
-3 41 -16 55 -27 24 -19 27 -19 50 -4 13 9 33 16 43 16 25 0 42 19 42 47 0 13
9 32 21 44 l21 21 -21 19 c-14 13 -21 32 -21 54 0 32 -3 35 -29 35 -19 0 -36
8 -48 25 -18 24 -18 24 -43 5z m99 -110 c17 -52 2 -90 -43 -113 -36 -19 -38
-19 -77 -2 -32 15 -41 25 -50 58 -14 53 7 102 53 122 29 12 36 11 69 -8 25
-15 41 -33 48 -57z" />
		<path
			d="M2407 1897 c21 -35 53 -79 53 -74 0 15 -24 57 -32 57 -5 0 -7 4 -4 9
3 5 -1 12 -10 15 -10 4 -13 2 -7 -7z" />
		<path
			d="M2393 1849 c47 -134 62 -231 61 -389 -1 -64 -7 -129 -14 -137 -2 -2
-4 -12 -5 -23 -1 -11 -4 -21 -5 -22 -1 -2 -4 -12 -5 -23 -3 -24 -35 -105 -47
-122 -6 -7 -7 -16 -4 -21 3 -5 -3 -20 -13 -33 -19 -25 -21 -29 -21 -55 0 -8
-4 -13 -9 -10 -5 3 -15 -9 -22 -27 -7 -17 -16 -34 -19 -37 -4 -3 -20 -25 -37
-50 -29 -43 -88 -109 -98 -110 -4 -1 -42 -33 -98 -82 -18 -16 -36 -28 -42 -28
-6 0 -27 -11 -46 -26 -61 -45 -185 -93 -310 -119 -83 -18 -296 -21 -357 -6
-23 6 -57 13 -75 16 -17 2 -45 8 -62 14 -94 29 -296 140 -321 175 -8 11 -14
16 -14 11 0 -6 -3 -6 -8 0 -4 6 -23 21 -42 34 -28 18 -25 13 15 -24 28 -25 78
-63 112 -84 35 -21 60 -41 55 -45 -4 -4 -2 -7 3 -6 21 5 36 0 30 -10 -4 -6 1
-7 11 -3 12 4 15 3 10 -5 -5 -8 -1 -10 10 -5 12 4 15 3 10 -5 -5 -8 -1 -10 10
-5 11 4 15 2 11 -4 -9 -14 18 -24 40 -16 10 4 14 2 10 -4 -5 -7 1 -9 15 -6 19
4 20 3 8 -6 -12 -9 -9 -10 15 -5 23 4 27 3 15 -5 -12 -9 -8 -10 15 -5 23 4 27
3 15 -5 -11 -8 -7 -10 20 -5 27 4 31 3 20 -5 -11 -8 -7 -10 20 -5 27 4 32 3
20 -6 -12 -8 -6 -9 25 -5 28 5 36 4 26 -3 -10 -7 5 -9 50 -7 46 3 56 2 34 -4
-45 -13 -27 -12 131 4 80 9 150 12 156 9 7 -5 8 -2 3 6 -6 10 -1 12 18 8 15
-3 24 -2 22 3 -7 10 52 22 67 13 7 -4 9 -3 5 1 -10 11 81 48 95 39 7 -5 8 -2
3 6 -6 10 -4 12 9 7 11 -5 15 -3 10 5 -5 8 -2 9 10 5 11 -5 15 -3 10 5 -5 8
-2 9 10 5 11 -5 15 -3 10 5 -5 8 -2 9 10 5 10 -4 15 -3 11 3 -7 11 32 33 45
25 6 -4 9 -2 8 3 -2 5 22 28 52 52 88 68 119 100 182 185 144 192 206 398 195
643 -5 119 -44 304 -68 326 -9 8 -10 7 -6 -5z" />
		<path
			d="M2496 1660 c4 -25 10 -97 14 -160 l8 -115 -3 130 c-2 72 -8 144 -14
160 -10 27 -10 25 -5 -15z" />
		<path d="M404 1465 c0 -49 1 -71 3 -48 2 23 2 64 0 90 -2 26 -3 8 -3 -42z" />
		<path
			d="M2234 656 c-43 -44 -143 -116 -162 -116 -7 0 -12 -5 -12 -10 0 -6
-10 -14 -22 -19 -13 -5 -53 -23 -90 -40 -36 -17 -71 -31 -77 -31 -6 0 -11 -4
-11 -9 0 -10 42 -1 76 17 10 5 49 24 87 43 37 18 67 36 67 41 0 4 4 8 10 8 14
0 100 62 100 73 0 4 4 6 9 3 4 -3 18 5 30 18 13 13 19 26 14 29 -4 3 -13 0
-19 -7z" />
		<path
			d="M1829 426 c-6 -6 -57 -17 -86 -19 -26 -2 -43 -17 -19 -17 26 0 110
22 121 31 5 6 5 9 -1 9 -6 0 -13 -2 -15 -4z" />
	</g>
</svg>